<svg width="64" height="64" viewBox="0 0 64 64" fill="none" xmlns="http://www.w3.org/2000/svg">
<rect x="0.5" y="0.5" width="63" height="63" rx="31.5" fill="#F4F2F7"/>
<rect x="0.5" y="0.5" width="63" height="63" rx="31.5" stroke="#B068FD"/>
<path d="M32 4C28.287 4 24.726 5.475 22.1005 8.1005C19.475 10.726 18 14.287 18 18C18 21.713 19.475 25.274 22.1005 27.8995C24.726 30.525 28.287 32 32 32C35.713 32 39.274 30.525 41.8995 27.8995C44.525 25.274 46 21.713 46 18C46 14.287 44.525 10.726 41.8995 8.1005C39.274 5.475 35.713 4 32 4ZM20 18C20 14.8174 21.2643 11.7652 23.5147 9.51472C25.7652 7.26428 28.8174 6 32 6C35.1826 6 38.2348 7.26428 40.4853 9.51472C42.7357 11.7652 44 14.8174 44 18C44 21.1826 42.7357 24.2348 40.4853 26.4853C38.2348 28.7357 35.1826 30 32 30C28.8174 30 25.7652 28.7357 23.5147 26.4853C21.2643 24.2348 20 21.1826 20 18ZM15 36C13.1435 36 11.363 36.7375 10.0503 38.0503C8.7375 39.363 8 41.1435 8 43V44.334C8 48.634 13.532 60 32 60C50.468 60 56 48.632 56 44.334V43C56 41.1435 55.2625 39.363 53.9497 38.0503C52.637 36.7375 50.8565 36 49 36H15ZM10 43C10 41.6739 10.5268 40.4021 11.4645 39.4645C12.4021 38.5268 13.6739 38 15 38H49C50.3261 38 51.5979 38.5268 52.5355 39.4645C53.4732 40.4021 54 41.6739 54 43V44.334C54 47.368 49.53 58 32 58C14.47 58 10 47.368 10 44.334V43Z" fill="#B068FD"/>
</svg>
