<svg width="21" height="22" viewBox="0 0 21 22" fill="none" xmlns="http://www.w3.org/2000/svg">
<path d="M10.0017 2.49652H3.00039C2.46985 2.49652 1.96105 2.70728 1.5859 3.08242C1.21075 3.45757 1 3.96637 1 4.49691V18.4996C1 19.0302 1.21075 19.539 1.5859 19.9141C1.96105 20.2893 2.46985 20.5 3.00039 20.5H17.0031C17.5336 20.5 18.0424 20.2893 18.4176 19.9141C18.7927 19.539 19.0035 19.0302 19.0035 18.4996V11.4983" stroke="#922DFC" stroke-width="2" stroke-linecap="round" stroke-linejoin="round"/>
<path d="M16.3781 2.12144C16.776 1.72354 17.3157 1.5 17.8784 1.5C18.4411 1.5 18.9808 1.72354 19.3787 2.12144C19.7766 2.51934 20.0001 3.05901 20.0001 3.62173C20.0001 4.18445 19.7766 4.72412 19.3787 5.12202L10.3639 14.1378C10.1264 14.3751 9.83302 14.5488 9.51075 14.6429L6.63719 15.483C6.55113 15.5081 6.4599 15.5096 6.37305 15.4874C6.28621 15.4651 6.20694 15.42 6.14355 15.3566C6.08015 15.2932 6.03497 15.2139 6.01272 15.127C5.99047 15.0402 5.99197 14.949 6.01707 14.8629L6.85724 11.9894C6.95178 11.6673 7.12582 11.3743 7.36334 11.1372L16.3781 2.12144Z" stroke="#922DFC" stroke-width="2" stroke-linecap="round" stroke-linejoin="round"/>
</svg>
