<svg width="24" height="24" viewBox="0 0 24 24" fill="none" xmlns="http://www.w3.org/2000/svg">
    <path
        d="M12.0017 2.99652H5.00039C4.46985 2.99652 3.96105 3.20728 3.5859 3.58242C3.21075 3.95757 3 4.46637 3 4.99691V18.9996C3 19.5302 3.21075 20.039 3.5859 20.4141C3.96105 20.7893 4.46985 21 5.00039 21H19.0031C19.5336 21 20.0424 20.7893 20.4176 20.4141C20.7927 20.039 21.0035 19.5302 21.0035 18.9996V11.9983"
        stroke="currentColor" stroke-width="2" stroke-linecap="round" stroke-linejoin="round" />
    <path
        d="M18.3844 2.62144C18.7823 2.22354 19.322 2 19.8847 2C20.4474 2 20.9871 2.22354 21.385 2.62144C21.7829 3.01934 22.0065 3.55901 22.0065 4.12173C22.0065 4.68445 21.7829 5.22412 21.385 5.62202L12.3703 14.6378C12.1328 14.8751 11.8394 15.0488 11.5171 15.1429L8.64354 15.983C8.55748 16.0081 8.46625 16.0096 8.3794 15.9874C8.29255 15.9651 8.21329 15.92 8.14989 15.8566C8.0865 15.7932 8.04131 15.7139 8.01906 15.627C7.99681 15.5402 7.99832 15.449 8.02342 15.3629L8.86358 12.4894C8.95813 12.1673 9.13217 11.8743 9.36968 11.6372L18.3844 2.62144Z"
        stroke="currentColor" stroke-width="2" stroke-linecap="round" stroke-linejoin="round" />
</svg>