<svg width="24" height="24" viewBox="0 0 24 24" fill="none" xmlns="http://www.w3.org/2000/svg">
<path d="M3 11C3 7.229 3 5.343 4.172 4.172C5.344 3.001 7.229 3 11 3H13C16.771 3 18.657 3 19.828 4.172C20.999 5.344 21 7.229 21 11V13C21 16.771 21 18.657 19.828 19.828C18.656 20.999 16.771 21 13 21H11C7.229 21 5.343 21 4.172 19.828C3.001 18.656 3 16.771 3 13V11Z" stroke="#4A494B" stroke-width="2"/>
<path fill-rule="evenodd" clip-rule="evenodd" d="M19 13.585L18.98 13.565C18.59 13.175 18.254 12.839 17.954 12.586C17.637 12.319 17.292 12.084 16.866 11.956C16.3012 11.7857 15.6988 11.7857 15.134 11.956C14.708 12.085 14.364 12.319 14.046 12.586C13.746 12.839 13.41 13.176 13.021 13.566L12.992 13.594C12.685 13.9 12.505 14.08 12.364 14.195L12.344 14.212L12.332 14.189C12.245 14.029 12.143 13.796 11.972 13.397L11.919 13.273L11.897 13.221C11.541 12.391 11.242 11.693 10.947 11.167C10.642 10.626 10.262 10.117 9.67 9.82102C9.17609 9.5736 8.62345 9.46736 8.073 9.51402C7.413 9.56902 6.872 9.90001 6.388 10.289C5.982 10.616 5.528 11.059 5 11.586V13C5 13.516 5.001 13.9863 5.003 14.411L6.117 13.297C6.807 12.607 7.267 12.15 7.642 11.847C8.012 11.549 8.172 11.512 8.242 11.507C8.42534 11.4914 8.60943 11.5267 8.774 11.609C8.835 11.64 8.97 11.733 9.204 12.149C9.44 12.569 9.697 13.165 10.081 14.061L10.134 14.185L10.151 14.223C10.3 14.571 10.438 14.893 10.576 15.147C10.721 15.412 10.931 15.73 11.285 15.949C11.7021 16.2075 12.1997 16.3036 12.683 16.219C13.093 16.146 13.406 15.929 13.639 15.737C13.861 15.553 14.109 15.305 14.377 15.037L14.407 15.007C14.832 14.582 15.108 14.307 15.335 14.116C15.553 13.932 15.655 13.888 15.711 13.871C15.8995 13.8141 16.1005 13.8141 16.289 13.871C16.345 13.888 16.447 13.932 16.665 14.116C16.892 14.307 17.168 14.582 17.594 15.008L18.944 16.358C18.99 15.64 18.998 14.748 19 13.585Z" fill="#4A494B"/>
<path d="M16.5 9C17.3284 9 18 8.32843 18 7.5C18 6.67157 17.3284 6 16.5 6C15.6716 6 15 6.67157 15 7.5C15 8.32843 15.6716 9 16.5 9Z" fill="#4A494B"/>
</svg>
